<svg xmlns="http://www.w3.org/2000/svg" viewBox="0 0 640 512">
  <rect width="640" height="512" fill="white"/>
  <path fill="#38bdf8" d="M504 256c0 136.967-111.033 248-248 248S8 392.967 8 256 119.033 8 256 8s248 111.033 248 248zm-148.9-61.8c-3.1-2.3-4.9-5.9-4.9-9.7V116c0-6.6 5.4-12 12-12h32c6.6 0 12 5.4 12 12v141.7l66.8 48.6c5.4 3.9 6.5 11.4 2.6 16.8l-15.3 21.1c-3.9 5.4-11.4 6.5-16.8 2.6zM256 512c141.385 0 256-114.615 256-256S397.385 0 256 0 0 114.615 0 256s114.615 256 256 256zm0-464c110.5 0 200 89.5 200 200S366.5 456 256 456s-200-89.5-200-200S145.5 48 256 48zm61.8 304.4l-84.9-61.7c-3.1-2.3-4.9-5.9-4.9-9.7V116c0-6.6 5.4-12 12-12h32c6.6 0 12 5.4 12 12v141.7l66.8 48.6c5.4 3.9 6.5 11.4 2.6 16.8l-15.3 21.1c-3.9 5.4-11.4 6.5-16.8 2.6z" />
</svg>
